<?xml version="1.0" encoding="UTF-8"?>
<svg id="Layer_1" data-name="Layer 1" xmlns="http://www.w3.org/2000/svg" viewBox="0 0 1200 1200">
  <defs>
    <style>
      .cls-1 {
        fill: #00dea2;
      }
    </style>
  </defs>
  <path class="cls-1" d="M600,598.84c0,.39,0,.77-.01,1.16-.3,87.49-35.89,166.67-93.28,224.05-57.63,57.64-137.26,93.29-225.21,93.29,0-166.7,128.07-303.49,291.18-317.34h-291.18c0-175.9,142.6-318.5,318.5-318.5v317.34Z"/>
  <path class="cls-1" d="M627.32,598.84h291.18c0,87.95-35.65,167.58-93.29,225.21-57.63,57.64-137.26,93.29-225.21,93.29v-317.34c0-.39,0-.77.01-1.16.62-175.37,142.98-317.34,318.49-317.34,0,87.95-35.65,167.58-93.29,225.21-51.6,51.61-120.84,85.59-197.89,92.13Z"/>
  <path class="cls-1" d="M600,598.84v1.16h-.01c.01-.39.01-.77.01-1.16Z"/>
  <path class="cls-1" d="M600.01,598.84c-.01.39-.01.77-.01,1.16v-1.16h.01Z"/>
</svg>